# xmcd
#
# Track frame offsets:
#	150
#	23220
#	48977
#	72570
#	94215
#	118572
#	142855
#	166000
#	189182
#	203845
#	228837
#	248300
#	273950
#	296197
#	320615
#
# Disc length: 4562 seconds
#
# Revision: 1
# Processed by: cddbd v1.5.2PL0 Copyright (c) Steve Scherf et al.
# Submitted via: EasyCDDAExtractor 9.1.3.1
#
DISCID=ca11d00f
DTITLE=mara lima - abençoado
DYEAR=2007
DGENRE=Gospel
TTITLE0=abençoado
TTITLE1=lá vem ele
TTITLE2=filho
TTITLE3=congresso de fogo
TTITLE4=santo dos santos
TTITLE5=o meio da história
TTITLE6=o grito dele
TTITLE7=consagrado
TTITLE8=transbordando de unção
TTITLE9=jairo
TTITLE10=intercessor
TTITLE11=vou profetizar
TTITLE12=horas
TTITLE13=mardoqueu
TTITLE14=porto seguro
EXTD=
EXTT0=
EXTT1=
EXTT2=
EXTT3=
EXTT4=
EXTT5=
EXTT6=
EXTT7=
EXTT8=
EXTT9=
EXTT10=
EXTT11=
EXTT12=
EXTT13=
EXTT14=
PLAYORDER=
